# MagicaVoxel @ Ephtracy

# group
o 

# material
mtllib pinguinoAnimal.mtl
usemtl palette

# normals
vn -1 0 0
vn 1 0 0
vn 0 0 1
vn 0 0 -1
vn 0 -1 0
vn 0 1 0

# texcoords
vt 0.0644531 0.5
vt 0.306641 0.5
vt 0.611328 0.5
vt 0.615234 0.5
vt 0.830078 0.5
vt 0.955078 0.5
vt 0.958984 0.5

# verts
v -0.5 0.3 0.2
v -0.5 0.3 -0.2
v -0.5 0.8 0.2
v -0.5 0.8 -0.2
v -0.4 0 0.3
v -0.4 0 -0.3
v -0.4 0.3 0.2
v -0.4 0.3 -0.2
v -0.4 0.8 0.2
v -0.4 0.8 -0.2
v -0.4 0.9 0.1
v -0.4 0.9 -0.1
v -0.4 1 0
v -0.4 1 -0.1
v -0.4 1.1 0.1
v -0.4 1.1 0
v -0.4 1.1 -0.1
v -0.4 1.3 0.3
v -0.4 1.3 -0.3
v -0.3 0 0.4
v -0.3 0 0.3
v -0.3 0.1 0.4
v -0.3 0.1 0.3
v -0.2 0 -0.3
v -0.2 0 -0.4
v -0.2 0.1 -0.3
v -0.2 0.1 -0.4
v -0.2 0.8 0.5
v -0.2 0.8 0.3
v -0.2 0.9 0.5
v -0.2 0.9 0.3
v -0.1 0 -0.4
v -0.1 0 -0.5
v -0.1 0.1 -0.4
v -0.1 0.2 -0.4
v -0.1 0.2 -0.5
v 0.1 0 0.4
v 0.1 0 0.3
v 0.1 0.1 0.4
v 0.1 0.1 0.3
v -0.1 0 0.4
v -0.1 0 0.3
v -0.1 0.1 0.4
v -0.1 0.1 0.3
v 0.1 0 -0.4
v 0.1 0 -0.5
v 0.1 0.1 -0.4
v 0.1 0.2 -0.4
v 0.1 0.2 -0.5
v 0.2 0 -0.3
v 0.2 0 -0.4
v 0.2 0.1 -0.3
v 0.2 0.1 -0.4
v 0.2 0.8 0.5
v 0.2 0.8 0.3
v 0.2 0.9 0.5
v 0.2 0.9 0.3
v 0.3 0 0.4
v 0.3 0 0.3
v 0.3 0.1 0.4
v 0.3 0.1 0.3
v 0.4 0 0.3
v 0.4 0 -0.3
v 0.4 0.3 0.2
v 0.4 0.3 -0.2
v 0.4 0.8 0.2
v 0.4 0.8 -0.2
v 0.4 0.9 0.1
v 0.4 0.9 -0.1
v 0.4 1 0
v 0.4 1 -0.1
v 0.4 1.1 0.1
v 0.4 1.1 0
v 0.4 1.1 -0.1
v 0.4 1.3 0.3
v 0.4 1.3 -0.3
v 0.5 0.3 0.2
v 0.5 0.3 -0.2
v 0.5 0.8 0.2
v 0.5 0.8 -0.2
v -0.2 0.8 0.5
v -0.2 0.9 0.5
v 0.2 0.8 0.5
v 0.2 0.9 0.5
v -0.3 0 0.4
v -0.3 0.1 0.4
v -0.1 0 0.4
v -0.1 0.1 0.4
v 0.1 0 0.4
v 0.1 0.1 0.4
v 0.3 0 0.4
v 0.3 0.1 0.4
v -0.4 0 0.3
v -0.4 1.3 0.3
v -0.3 0 0.3
v -0.3 0.1 0.3
v -0.2 0.1 0.3
v -0.2 0.7 0.3
v -0.2 0.8 0.3
v -0.2 0.9 0.3
v -0.1 0 0.3
v -0.1 0.1 0.3
v -0.1 0.9 0.3
v -0.1 1.3 0.3
v 0.1 0 0.3
v 0.1 0.1 0.3
v 0.1 0.9 0.3
v 0.1 1.3 0.3
v 0.2 0.1 0.3
v 0.2 0.7 0.3
v 0.2 0.8 0.3
v 0.2 0.9 0.3
v 0.3 0 0.3
v 0.3 0.1 0.3
v 0.4 0 0.3
v 0.4 1.3 0.3
v -0.5 0.3 0.2
v -0.5 0.8 0.2
v -0.4 0.3 0.2
v -0.4 0.8 0.2
v 0.4 0.3 0.2
v 0.4 0.8 0.2
v 0.5 0.3 0.2
v 0.5 0.8 0.2
v -0.1 0.1 -0.4
v -0.1 0.2 -0.4
v 0.1 0.1 -0.4
v 0.1 0.2 -0.4
v -0.5 0.3 -0.2
v -0.5 0.8 -0.2
v -0.4 0.3 -0.2
v -0.4 0.8 -0.2
v 0.4 0.3 -0.2
v 0.4 0.8 -0.2
v 0.5 0.3 -0.2
v 0.5 0.8 -0.2
v -0.4 0 -0.3
v -0.4 1.3 -0.3
v -0.2 0 -0.3
v -0.2 0.1 -0.3
v -0.1 0.9 -0.3
v -0.1 1.3 -0.3
v 0.1 0.9 -0.3
v 0.1 1.3 -0.3
v 0.2 0 -0.3
v 0.2 0.1 -0.3
v 0.4 0 -0.3
v 0.4 1.3 -0.3
v -0.2 0 -0.4
v -0.2 0.1 -0.4
v -0.1 0 -0.4
v -0.1 0.1 -0.4
v 0.1 0 -0.4
v 0.1 0.1 -0.4
v 0.2 0 -0.4
v 0.2 0.1 -0.4
v -0.1 0 -0.5
v -0.1 0.2 -0.5
v 0.1 0 -0.5
v 0.1 0.2 -0.5
v -0.3 0 0.4
v -0.1 0 0.4
v 0.1 0 0.4
v 0.3 0 0.4
v -0.4 0 0.3
v -0.3 0 0.3
v -0.1 0 0.3
v 0.1 0 0.3
v 0.3 0 0.3
v 0.4 0 0.3
v -0.4 0 -0.3
v -0.2 0 -0.3
v 0.2 0 -0.3
v 0.4 0 -0.3
v -0.2 0 -0.4
v -0.1 0 -0.4
v 0.1 0 -0.4
v 0.2 0 -0.4
v -0.1 0 -0.5
v 0.1 0 -0.5
v -0.5 0.3 0.2
v -0.4 0.3 0.2
v 0.4 0.3 0.2
v 0.5 0.3 0.2
v -0.5 0.3 -0.2
v -0.4 0.3 -0.2
v 0.4 0.3 -0.2
v 0.5 0.3 -0.2
v -0.2 0.8 0.5
v 0.2 0.8 0.5
v -0.2 0.8 0.3
v 0.2 0.8 0.3
v -0.3 0.1 0.4
v -0.1 0.1 0.4
v 0.1 0.1 0.4
v 0.3 0.1 0.4
v -0.3 0.1 0.3
v -0.2 0.1 0.3
v -0.1 0.1 0.3
v 0.1 0.1 0.3
v 0.2 0.1 0.3
v 0.3 0.1 0.3
v -0.2 0.1 -0.3
v 0.2 0.1 -0.3
v -0.2 0.1 -0.4
v -0.1 0.1 -0.4
v 0.1 0.1 -0.4
v 0.2 0.1 -0.4
v -0.1 0.2 -0.4
v 0.1 0.2 -0.4
v -0.1 0.2 -0.5
v 0.1 0.2 -0.5
v -0.5 0.8 0.2
v -0.4 0.8 0.2
v 0.4 0.8 0.2
v 0.5 0.8 0.2
v -0.5 0.8 -0.2
v -0.4 0.8 -0.2
v 0.4 0.8 -0.2
v 0.5 0.8 -0.2
v -0.2 0.9 0.5
v 0.2 0.9 0.5
v -0.2 0.9 0.3
v -0.1 0.9 0.3
v 0.1 0.9 0.3
v 0.2 0.9 0.3
v -0.4 1.3 0.3
v -0.1 1.3 0.3
v 0.1 1.3 0.3
v 0.4 1.3 0.3
v -0.4 1.3 -0.3
v -0.1 1.3 -0.3
v 0.1 1.3 -0.3
v 0.4 1.3 -0.3

# faces
f 3/3/1 2/3/1 1/3/1
f 4/3/1 2/3/1 3/3/1
f 7/3/1 6/3/1 5/3/1
f 8/3/1 6/3/1 7/3/1
f 9/3/1 7/3/1 5/3/1
f 10/3/1 6/3/1 8/3/1
f 11/3/1 10/3/1 9/3/1
f 12/3/1 10/3/1 11/3/1
f 13/6/1 12/6/1 11/6/1
f 14/3/1 10/3/1 12/3/1
f 14/6/1 12/6/1 13/6/1
f 15/3/1 11/3/1 9/3/1
f 15/6/1 13/6/1 11/6/1
f 16/7/1 14/7/1 13/7/1
f 16/6/1 13/6/1 15/6/1
f 17/3/1 10/3/1 14/3/1
f 17/7/1 14/7/1 16/7/1
f 18/3/1 9/3/1 5/3/1
f 18/3/1 16/3/1 15/3/1
f 18/3/1 17/3/1 16/3/1
f 18/3/1 15/3/1 9/3/1
f 19/3/1 10/3/1 17/3/1
f 19/3/1 17/3/1 18/3/1
f 19/3/1 6/3/1 10/3/1
f 22/1/1 21/1/1 20/1/1
f 23/1/1 21/1/1 22/1/1
f 26/5/1 25/5/1 24/5/1
f 27/5/1 25/5/1 26/5/1
f 30/1/1 29/1/1 28/1/1
f 31/1/1 29/1/1 30/1/1
f 34/5/1 33/5/1 32/5/1
f 35/5/1 33/5/1 34/5/1
f 36/5/1 33/5/1 35/5/1
f 39/1/1 38/1/1 37/1/1
f 40/1/1 38/1/1 39/1/1
f 41/1/2 42/1/2 43/1/2
f 43/1/2 42/1/2 44/1/2
f 45/5/2 46/5/2 47/5/2
f 47/5/2 46/5/2 48/5/2
f 48/5/2 46/5/2 49/5/2
f 50/5/2 51/5/2 52/5/2
f 52/5/2 51/5/2 53/5/2
f 54/1/2 55/1/2 56/1/2
f 56/1/2 55/1/2 57/1/2
f 58/1/2 59/1/2 60/1/2
f 60/1/2 59/1/2 61/1/2
f 62/3/2 63/3/2 64/3/2
f 64/3/2 63/3/2 65/3/2
f 62/3/2 64/3/2 66/3/2
f 65/3/2 63/3/2 67/3/2
f 66/3/2 67/3/2 68/3/2
f 68/3/2 67/3/2 69/3/2
f 68/6/2 69/6/2 70/6/2
f 69/3/2 67/3/2 71/3/2
f 70/6/2 69/6/2 71/6/2
f 66/3/2 68/3/2 72/3/2
f 68/6/2 70/6/2 72/6/2
f 70/7/2 71/7/2 73/7/2
f 72/6/2 70/6/2 73/6/2
f 71/3/2 67/3/2 74/3/2
f 73/7/2 71/7/2 74/7/2
f 62/3/2 66/3/2 75/3/2
f 72/3/2 73/3/2 75/3/2
f 73/3/2 74/3/2 75/3/2
f 66/3/2 72/3/2 75/3/2
f 74/3/2 67/3/2 76/3/2
f 75/3/2 74/3/2 76/3/2
f 67/3/2 63/3/2 76/3/2
f 77/3/2 78/3/2 79/3/2
f 79/3/2 78/3/2 80/3/2
f 83/1/3 82/1/3 81/1/3
f 84/1/3 82/1/3 83/1/3
f 87/1/3 86/1/3 85/1/3
f 88/1/3 86/1/3 87/1/3
f 91/1/3 90/1/3 89/1/3
f 92/1/3 90/1/3 91/1/3
f 95/3/3 94/3/3 93/3/3
f 96/3/3 94/3/3 95/3/3
f 97/3/3 94/3/3 96/3/3
f 98/3/3 94/3/3 97/3/3
f 99/3/3 94/3/3 98/3/3
f 100/3/3 94/3/3 99/3/3
f 102/7/3 98/7/3 97/7/3
f 103/3/3 94/3/3 100/3/3
f 104/3/3 94/3/3 103/3/3
f 105/3/3 102/3/3 101/3/3
f 106/7/3 98/7/3 102/7/3
f 106/3/3 102/3/3 105/3/3
f 107/5/3 104/5/3 103/5/3
f 108/5/3 104/5/3 107/5/3
f 109/7/3 98/7/3 106/7/3
f 110/3/3 99/3/3 98/3/3
f 110/7/3 98/7/3 109/7/3
f 111/3/3 99/3/3 110/3/3
f 112/3/3 108/3/3 107/3/3
f 114/3/3 111/3/3 110/3/3
f 114/3/3 112/3/3 111/3/3
f 114/3/3 110/3/3 109/3/3
f 115/3/3 114/3/3 113/3/3
f 116/3/3 108/3/3 112/3/3
f 116/3/3 114/3/3 115/3/3
f 116/3/3 112/3/3 114/3/3
f 119/3/3 118/3/3 117/3/3
f 120/3/3 118/3/3 119/3/3
f 123/3/3 122/3/3 121/3/3
f 124/3/3 122/3/3 123/3/3
f 127/5/3 126/5/3 125/5/3
f 128/5/3 126/5/3 127/5/3
f 129/3/4 130/3/4 131/3/4
f 131/3/4 130/3/4 132/3/4
f 133/3/4 134/3/4 135/3/4
f 135/3/4 134/3/4 136/3/4
f 137/3/4 138/3/4 139/3/4
f 139/3/4 138/3/4 140/3/4
f 140/3/4 138/3/4 141/3/4
f 141/3/4 138/3/4 142/3/4
f 140/3/4 141/3/4 143/3/4
f 141/5/4 142/5/4 143/5/4
f 143/5/4 142/5/4 144/5/4
f 140/3/4 143/3/4 146/3/4
f 143/3/4 144/3/4 146/3/4
f 145/3/4 146/3/4 147/3/4
f 146/3/4 144/3/4 148/3/4
f 147/3/4 146/3/4 148/3/4
f 149/5/4 150/5/4 151/5/4
f 151/5/4 150/5/4 152/5/4
f 153/5/4 154/5/4 155/5/4
f 155/5/4 154/5/4 156/5/4
f 157/5/4 158/5/4 159/5/4
f 159/5/4 158/5/4 160/5/4
f 166/1/5 162/1/5 161/1/5
f 167/1/5 162/1/5 166/1/5
f 168/1/5 164/1/5 163/1/5
f 169/1/5 164/1/5 168/1/5
f 171/3/5 167/3/5 166/3/5
f 171/3/5 170/3/5 169/3/5
f 171/3/5 169/3/5 168/3/5
f 171/3/5 168/3/5 167/3/5
f 171/3/5 166/3/5 165/3/5
f 172/3/5 170/3/5 171/3/5
f 173/3/5 170/3/5 172/3/5
f 174/3/5 170/3/5 173/3/5
f 175/5/5 173/5/5 172/5/5
f 176/5/5 173/5/5 175/5/5
f 177/5/5 173/5/5 176/5/5
f 178/5/5 173/5/5 177/5/5
f 179/5/5 177/5/5 176/5/5
f 180/5/5 177/5/5 179/5/5
f 185/3/5 182/3/5 181/3/5
f 186/3/5 182/3/5 185/3/5
f 187/3/5 184/3/5 183/3/5
f 188/3/5 184/3/5 187/3/5
f 191/1/5 190/1/5 189/1/5
f 192/1/5 190/1/5 191/1/5
f 193/1/6 194/1/6 197/1/6
f 197/1/6 194/1/6 198/1/6
f 198/1/6 194/1/6 199/1/6
f 195/1/6 196/1/6 200/1/6
f 200/1/6 196/1/6 201/1/6
f 201/1/6 196/1/6 202/1/6
f 203/5/6 204/5/6 205/5/6
f 205/5/6 204/5/6 206/5/6
f 206/5/6 204/5/6 207/5/6
f 207/5/6 204/5/6 208/5/6
f 209/5/6 210/5/6 211/5/6
f 211/5/6 210/5/6 212/5/6
f 213/3/6 214/3/6 217/3/6
f 217/3/6 214/3/6 218/3/6
f 215/3/6 216/3/6 219/3/6
f 219/3/6 216/3/6 220/3/6
f 221/1/6 222/1/6 223/1/6
f 223/1/6 222/1/6 224/1/6
f 224/1/6 222/1/6 225/1/6
f 225/1/6 222/1/6 226/1/6
f 227/3/6 228/3/6 231/3/6
f 228/5/6 229/5/6 232/5/6
f 231/3/6 228/3/6 232/3/6
f 229/3/6 230/3/6 233/3/6
f 232/5/6 229/5/6 233/5/6
f 233/3/6 230/3/6 234/3/6
