# MagicaVoxel @ Ephtracy

# group
o 

# material
mtllib patito.mtl
usemtl palette

# normals
vn -1 0 0
vn 1 0 0
vn 0 0 1
vn 0 0 -1
vn 0 -1 0
vn 0 1 0

# texcoords
vt 0.0410156 0.5
vt 0.0683594 0.5
vt 0.994141 0.5

# verts
v -0.4 0.5 0.1
v -0.4 0.5 -0.2
v -0.4 0.6 0.2
v -0.4 0.6 0.1
v -0.4 0.6 -0.2
v -0.4 0.6 -0.3
v -0.4 0.7 0.2
v -0.4 0.7 0.1
v -0.4 0.7 -0.2
v -0.4 0.7 -0.3
v -0.4 0.8 0.1
v -0.4 0.8 -0.2
v -0.2 0.4 0.3
v -0.2 0.4 -0.5
v -0.2 0.5 0.1
v -0.2 0.5 -0.2
v -0.2 0.6 0.2
v -0.2 0.6 0.1
v -0.2 0.6 -0.2
v -0.2 0.6 -0.3
v -0.2 0.7 0.2
v -0.2 0.7 0.1
v -0.2 0.7 -0.2
v -0.2 0.7 -0.3
v -0.2 0.8 0.1
v -0.2 0.8 -0.2
v -0.2 0.8 -0.3
v -0.2 0.8 -0.4
v -0.2 0.9 0.2
v -0.2 0.9 0.1
v -0.2 0.9 -0.4
v -0.2 0.9 -0.5
v -0.2 1 0.2
v -0.2 1 0.1
v -0.2 1.1 0.3
v -0.2 1.1 -0.3
v -0.1 0 0
v -0.1 0 -0.4
v -0.1 0.1 0
v -0.1 0.1 -0.2
v -0.1 0.1 -0.3
v -0.1 0.1 -0.4
v -0.1 0.4 -0.2
v -0.1 0.4 -0.3
v -0.1 0.7 0.5
v -0.1 0.7 0.3
v -0.1 0.9 0.5
v -0.1 0.9 0.3
v 0.1 0 0
v 0.1 0 -0.4
v 0.1 0.1 0
v 0.1 0.1 -0.2
v 0.1 0.1 -0.3
v 0.1 0.1 -0.4
v 0.1 0.4 -0.2
v 0.1 0.4 -0.3
v 0 0 0
v 0 0 -0.4
v 0 0.1 0
v 0 0.1 -0.2
v 0 0.1 -0.3
v 0 0.1 -0.4
v 0 0.4 -0.2
v 0 0.4 -0.3
v 0.2 0 0
v 0.2 0 -0.4
v 0.2 0.1 0
v 0.2 0.1 -0.2
v 0.2 0.1 -0.3
v 0.2 0.1 -0.4
v 0.2 0.4 -0.2
v 0.2 0.4 -0.3
v 0.2 0.7 0.5
v 0.2 0.7 0.3
v 0.2 0.9 0.5
v 0.2 0.9 0.3
v 0.3 0.4 0.3
v 0.3 0.4 -0.5
v 0.3 0.5 0.1
v 0.3 0.5 -0.2
v 0.3 0.6 0.2
v 0.3 0.6 0.1
v 0.3 0.6 -0.2
v 0.3 0.6 -0.3
v 0.3 0.7 0.2
v 0.3 0.7 0.1
v 0.3 0.7 -0.2
v 0.3 0.7 -0.3
v 0.3 0.8 0.1
v 0.3 0.8 -0.2
v 0.3 0.8 -0.3
v 0.3 0.8 -0.4
v 0.3 0.9 0.2
v 0.3 0.9 0.1
v 0.3 0.9 -0.4
v 0.3 0.9 -0.5
v 0.3 1 0.2
v 0.3 1 0.1
v 0.3 1.1 0.3
v 0.3 1.1 -0.3
v 0.5 0.5 0.1
v 0.5 0.5 -0.2
v 0.5 0.6 0.2
v 0.5 0.6 0.1
v 0.5 0.6 -0.2
v 0.5 0.6 -0.3
v 0.5 0.7 0.2
v 0.5 0.7 0.1
v 0.5 0.7 -0.2
v 0.5 0.7 -0.3
v 0.5 0.8 0.1
v 0.5 0.8 -0.2
v -0.1 0.7 0.5
v -0.1 0.9 0.5
v 0.2 0.7 0.5
v 0.2 0.9 0.5
v -0.2 0.4 0.3
v -0.2 1.1 0.3
v -0.1 0.7 0.3
v -0.1 0.9 0.3
v 0.2 0.7 0.3
v 0.2 0.9 0.3
v 0.3 0.4 0.3
v 0.3 1.1 0.3
v -0.4 0.6 0.2
v -0.4 0.7 0.2
v -0.2 0.6 0.2
v -0.2 0.7 0.2
v 0.3 0.6 0.2
v 0.3 0.7 0.2
v 0.5 0.6 0.2
v 0.5 0.7 0.2
v -0.4 0.5 0.1
v -0.4 0.6 0.1
v -0.4 0.7 0.1
v -0.4 0.8 0.1
v -0.2 0.5 0.1
v -0.2 0.6 0.1
v -0.2 0.7 0.1
v -0.2 0.8 0.1
v 0.3 0.5 0.1
v 0.3 0.6 0.1
v 0.3 0.7 0.1
v 0.3 0.8 0.1
v 0.5 0.5 0.1
v 0.5 0.6 0.1
v 0.5 0.7 0.1
v 0.5 0.8 0.1
v -0.1 0 0
v -0.1 0.1 0
v 0 0 0
v 0 0.1 0
v 0.1 0 0
v 0.1 0.1 0
v 0.2 0 0
v 0.2 0.1 0
v -0.1 0.1 -0.2
v -0.1 0.4 -0.2
v 0 0.1 -0.2
v 0 0.4 -0.2
v 0.1 0.1 -0.2
v 0.1 0.4 -0.2
v 0.2 0.1 -0.2
v 0.2 0.4 -0.2
v -0.2 0.8 -0.4
v -0.2 0.9 -0.4
v 0.3 0.8 -0.4
v 0.3 0.9 -0.4
v -0.4 0.5 -0.2
v -0.4 0.6 -0.2
v -0.4 0.7 -0.2
v -0.4 0.8 -0.2
v -0.2 0.5 -0.2
v -0.2 0.6 -0.2
v -0.2 0.7 -0.2
v -0.2 0.8 -0.2
v 0.3 0.5 -0.2
v 0.3 0.6 -0.2
v 0.3 0.7 -0.2
v 0.3 0.8 -0.2
v 0.5 0.5 -0.2
v 0.5 0.6 -0.2
v 0.5 0.7 -0.2
v 0.5 0.8 -0.2
v -0.4 0.6 -0.3
v -0.4 0.7 -0.3
v -0.2 0.6 -0.3
v -0.2 0.7 -0.3
v -0.2 0.8 -0.3
v -0.2 1.1 -0.3
v -0.1 0.1 -0.3
v -0.1 0.4 -0.3
v 0 0.1 -0.3
v 0 0.4 -0.3
v 0.1 0.1 -0.3
v 0.1 0.4 -0.3
v 0.2 0.1 -0.3
v 0.2 0.4 -0.3
v 0.3 0.6 -0.3
v 0.3 0.7 -0.3
v 0.3 0.8 -0.3
v 0.3 1.1 -0.3
v 0.5 0.6 -0.3
v 0.5 0.7 -0.3
v -0.1 0 -0.4
v -0.1 0.1 -0.4
v 0 0 -0.4
v 0 0.1 -0.4
v 0.1 0 -0.4
v 0.1 0.1 -0.4
v 0.2 0 -0.4
v 0.2 0.1 -0.4
v -0.2 0.4 -0.5
v -0.2 0.9 -0.5
v 0.3 0.4 -0.5
v 0.3 0.9 -0.5
v -0.1 0 0
v 0 0 0
v 0.1 0 0
v 0.2 0 0
v -0.1 0 -0.4
v 0 0 -0.4
v 0.1 0 -0.4
v 0.2 0 -0.4
v -0.2 0.4 0.3
v 0.3 0.4 0.3
v -0.1 0.4 -0.2
v 0 0.4 -0.2
v 0.1 0.4 -0.2
v 0.2 0.4 -0.2
v -0.1 0.4 -0.3
v 0 0.4 -0.3
v 0.1 0.4 -0.3
v 0.2 0.4 -0.3
v -0.2 0.4 -0.5
v 0.3 0.4 -0.5
v -0.4 0.5 0.1
v -0.2 0.5 0.1
v 0.3 0.5 0.1
v 0.5 0.5 0.1
v -0.4 0.5 -0.2
v -0.2 0.5 -0.2
v 0.3 0.5 -0.2
v 0.5 0.5 -0.2
v -0.4 0.6 0.2
v -0.2 0.6 0.2
v 0.3 0.6 0.2
v 0.5 0.6 0.2
v -0.4 0.6 0.1
v -0.2 0.6 0.1
v 0.3 0.6 0.1
v 0.5 0.6 0.1
v -0.4 0.6 -0.2
v -0.2 0.6 -0.2
v 0.3 0.6 -0.2
v 0.5 0.6 -0.2
v -0.4 0.6 -0.3
v -0.2 0.6 -0.3
v 0.3 0.6 -0.3
v 0.5 0.6 -0.3
v -0.1 0.7 0.5
v 0.2 0.7 0.5
v -0.1 0.7 0.3
v 0.2 0.7 0.3
v -0.1 0.1 0
v 0 0.1 0
v 0.1 0.1 0
v 0.2 0.1 0
v -0.1 0.1 -0.2
v 0 0.1 -0.2
v 0.1 0.1 -0.2
v 0.2 0.1 -0.2
v -0.1 0.1 -0.3
v 0 0.1 -0.3
v 0.1 0.1 -0.3
v 0.2 0.1 -0.3
v -0.1 0.1 -0.4
v 0 0.1 -0.4
v 0.1 0.1 -0.4
v 0.2 0.1 -0.4
v -0.4 0.7 0.2
v -0.2 0.7 0.2
v 0.3 0.7 0.2
v 0.5 0.7 0.2
v -0.4 0.7 0.1
v -0.2 0.7 0.1
v 0.3 0.7 0.1
v 0.5 0.7 0.1
v -0.4 0.7 -0.2
v -0.2 0.7 -0.2
v 0.3 0.7 -0.2
v 0.5 0.7 -0.2
v -0.4 0.7 -0.3
v -0.2 0.7 -0.3
v 0.3 0.7 -0.3
v 0.5 0.7 -0.3
v -0.4 0.8 0.1
v -0.2 0.8 0.1
v 0.3 0.8 0.1
v 0.5 0.8 0.1
v -0.4 0.8 -0.2
v -0.2 0.8 -0.2
v 0.3 0.8 -0.2
v 0.5 0.8 -0.2
v -0.2 0.8 -0.3
v 0.3 0.8 -0.3
v -0.2 0.8 -0.4
v 0.3 0.8 -0.4
v -0.1 0.9 0.5
v 0.2 0.9 0.5
v -0.1 0.9 0.3
v 0.2 0.9 0.3
v -0.2 0.9 -0.4
v 0.3 0.9 -0.4
v -0.2 0.9 -0.5
v 0.3 0.9 -0.5
v -0.2 1.1 0.3
v 0.3 1.1 0.3
v -0.2 1.1 -0.3
v 0.3 1.1 -0.3

# faces
f 4/1/1 2/1/1 1/1/1
f 5/1/1 2/1/1 4/1/1
f 7/1/1 4/1/1 3/1/1
f 7/1/1 6/1/1 5/1/1
f 7/1/1 5/1/1 4/1/1
f 8/1/1 6/1/1 7/1/1
f 9/1/1 6/1/1 8/1/1
f 10/1/1 6/1/1 9/1/1
f 11/1/1 9/1/1 8/1/1
f 12/1/1 9/1/1 11/1/1
f 15/1/1 14/1/1 13/1/1
f 16/1/1 14/1/1 15/1/1
f 17/1/1 15/1/1 13/1/1
f 18/1/1 15/1/1 17/1/1
f 19/1/1 14/1/1 16/1/1
f 20/1/1 14/1/1 19/1/1
f 21/1/1 17/1/1 13/1/1
f 24/1/1 14/1/1 20/1/1
f 25/1/1 22/1/1 21/1/1
f 26/1/1 24/1/1 23/1/1
f 27/1/1 14/1/1 24/1/1
f 27/1/1 24/1/1 26/1/1
f 28/1/1 14/1/1 27/1/1
f 29/1/1 25/1/1 21/1/1
f 29/1/1 21/1/1 13/1/1
f 29/1/1 27/1/1 26/1/1
f 29/1/1 26/1/1 25/1/1
f 30/1/1 27/1/1 29/1/1
f 31/1/1 14/1/1 28/1/1
f 32/1/1 14/1/1 31/1/1
f 33/1/1 29/1/1 13/1/1
f 33/3/1 30/3/1 29/3/1
f 34/1/1 27/1/1 30/1/1
f 34/3/1 30/3/1 33/3/1
f 35/1/1 33/1/1 13/1/1
f 35/1/1 34/1/1 33/1/1
f 36/1/1 27/1/1 34/1/1
f 36/1/1 34/1/1 35/1/1
f 39/2/1 38/2/1 37/2/1
f 40/2/1 38/2/1 39/2/1
f 41/2/1 38/2/1 40/2/1
f 42/2/1 38/2/1 41/2/1
f 43/2/1 41/2/1 40/2/1
f 44/2/1 41/2/1 43/2/1
f 47/2/1 46/2/1 45/2/1
f 48/2/1 46/2/1 47/2/1
f 51/2/1 50/2/1 49/2/1
f 52/2/1 50/2/1 51/2/1
f 53/2/1 50/2/1 52/2/1
f 54/2/1 50/2/1 53/2/1
f 55/2/1 53/2/1 52/2/1
f 56/2/1 53/2/1 55/2/1
f 57/2/2 58/2/2 59/2/2
f 59/2/2 58/2/2 60/2/2
f 60/2/2 58/2/2 61/2/2
f 61/2/2 58/2/2 62/2/2
f 60/2/2 61/2/2 63/2/2
f 63/2/2 61/2/2 64/2/2
f 65/2/2 66/2/2 67/2/2
f 67/2/2 66/2/2 68/2/2
f 68/2/2 66/2/2 69/2/2
f 69/2/2 66/2/2 70/2/2
f 68/2/2 69/2/2 71/2/2
f 71/2/2 69/2/2 72/2/2
f 73/2/2 74/2/2 75/2/2
f 75/2/2 74/2/2 76/2/2
f 77/1/2 78/1/2 79/1/2
f 79/1/2 78/1/2 80/1/2
f 77/1/2 79/1/2 81/1/2
f 81/1/2 79/1/2 82/1/2
f 80/1/2 78/1/2 83/1/2
f 83/1/2 78/1/2 84/1/2
f 77/1/2 81/1/2 85/1/2
f 84/1/2 78/1/2 88/1/2
f 85/1/2 86/1/2 89/1/2
f 87/1/2 88/1/2 90/1/2
f 88/1/2 78/1/2 91/1/2
f 90/1/2 88/1/2 91/1/2
f 91/1/2 78/1/2 92/1/2
f 85/1/2 89/1/2 93/1/2
f 77/1/2 85/1/2 93/1/2
f 90/1/2 91/1/2 93/1/2
f 89/1/2 90/1/2 93/1/2
f 93/1/2 91/1/2 94/1/2
f 92/1/2 78/1/2 95/1/2
f 95/1/2 78/1/2 96/1/2
f 77/1/2 93/1/2 97/1/2
f 93/3/2 94/3/2 97/3/2
f 94/1/2 91/1/2 98/1/2
f 97/3/2 94/3/2 98/3/2
f 77/1/2 97/1/2 99/1/2
f 97/1/2 98/1/2 99/1/2
f 98/1/2 91/1/2 100/1/2
f 99/1/2 98/1/2 100/1/2
f 101/1/2 102/1/2 104/1/2
f 104/1/2 102/1/2 105/1/2
f 103/1/2 104/1/2 107/1/2
f 105/1/2 106/1/2 107/1/2
f 104/1/2 105/1/2 107/1/2
f 107/1/2 106/1/2 108/1/2
f 108/1/2 106/1/2 109/1/2
f 109/1/2 106/1/2 110/1/2
f 108/1/2 109/1/2 111/1/2
f 111/1/2 109/1/2 112/1/2
f 115/2/3 114/2/3 113/2/3
f 116/2/3 114/2/3 115/2/3
f 119/1/3 118/1/3 117/1/3
f 120/1/3 118/1/3 119/1/3
f 121/1/3 119/1/3 117/1/3
f 122/1/3 118/1/3 120/1/3
f 123/1/3 121/1/3 117/1/3
f 123/1/3 122/1/3 121/1/3
f 124/1/3 118/1/3 122/1/3
f 124/1/3 122/1/3 123/1/3
f 127/1/3 126/1/3 125/1/3
f 128/1/3 126/1/3 127/1/3
f 131/1/3 130/1/3 129/1/3
f 132/1/3 130/1/3 131/1/3
f 137/1/3 134/1/3 133/1/3
f 138/1/3 134/1/3 137/1/3
f 139/1/3 136/1/3 135/1/3
f 140/1/3 136/1/3 139/1/3
f 145/1/3 142/1/3 141/1/3
f 146/1/3 142/1/3 145/1/3
f 147/1/3 144/1/3 143/1/3
f 148/1/3 144/1/3 147/1/3
f 151/2/3 150/2/3 149/2/3
f 152/2/3 150/2/3 151/2/3
f 155/2/3 154/2/3 153/2/3
f 156/2/3 154/2/3 155/2/3
f 159/2/3 158/2/3 157/2/3
f 160/2/3 158/2/3 159/2/3
f 163/2/3 162/2/3 161/2/3
f 164/2/3 162/2/3 163/2/3
f 167/1/3 166/1/3 165/1/3
f 168/1/3 166/1/3 167/1/3
f 169/1/4 170/1/4 173/1/4
f 173/1/4 170/1/4 174/1/4
f 171/1/4 172/1/4 175/1/4
f 175/1/4 172/1/4 176/1/4
f 177/1/4 178/1/4 181/1/4
f 181/1/4 178/1/4 182/1/4
f 179/1/4 180/1/4 183/1/4
f 183/1/4 180/1/4 184/1/4
f 185/1/4 186/1/4 187/1/4
f 187/1/4 186/1/4 188/1/4
f 191/2/4 192/2/4 193/2/4
f 193/2/4 192/2/4 194/2/4
f 195/2/4 196/2/4 197/2/4
f 197/2/4 196/2/4 198/2/4
f 189/1/4 190/1/4 201/1/4
f 201/1/4 190/1/4 202/1/4
f 199/1/4 200/1/4 203/1/4
f 203/1/4 200/1/4 204/1/4
f 205/2/4 206/2/4 207/2/4
f 207/2/4 206/2/4 208/2/4
f 209/2/4 210/2/4 211/2/4
f 211/2/4 210/2/4 212/2/4
f 213/1/4 214/1/4 215/1/4
f 215/1/4 214/1/4 216/1/4
f 221/2/5 218/2/5 217/2/5
f 222/2/5 218/2/5 221/2/5
f 223/2/5 220/2/5 219/2/5
f 224/2/5 220/2/5 223/2/5
f 227/1/5 226/1/5 225/1/5
f 228/1/5 226/1/5 227/1/5
f 229/1/5 226/1/5 228/1/5
f 230/1/5 226/1/5 229/1/5
f 231/1/5 227/1/5 225/1/5
f 232/1/5 229/1/5 228/1/5
f 233/1/5 229/1/5 232/1/5
f 234/1/5 226/1/5 230/1/5
f 235/1/5 233/1/5 232/1/5
f 235/1/5 234/1/5 233/1/5
f 235/1/5 231/1/5 225/1/5
f 235/1/5 232/1/5 231/1/5
f 236/1/5 226/1/5 234/1/5
f 236/1/5 234/1/5 235/1/5
f 241/1/5 238/1/5 237/1/5
f 242/1/5 238/1/5 241/1/5
f 243/1/5 240/1/5 239/1/5
f 244/1/5 240/1/5 243/1/5
f 249/1/5 246/1/5 245/1/5
f 250/1/5 246/1/5 249/1/5
f 251/1/5 248/1/5 247/1/5
f 252/1/5 248/1/5 251/1/5
f 257/1/5 254/1/5 253/1/5
f 258/1/5 254/1/5 257/1/5
f 259/1/5 256/1/5 255/1/5
f 260/1/5 256/1/5 259/1/5
f 263/2/5 262/2/5 261/2/5
f 264/2/5 262/2/5 263/2/5
f 265/2/6 266/2/6 269/2/6
f 269/2/6 266/2/6 270/2/6
f 267/2/6 268/2/6 271/2/6
f 271/2/6 268/2/6 272/2/6
f 273/2/6 274/2/6 277/2/6
f 277/2/6 274/2/6 278/2/6
f 275/2/6 276/2/6 279/2/6
f 279/2/6 276/2/6 280/2/6
f 281/1/6 282/1/6 285/1/6
f 285/1/6 282/1/6 286/1/6
f 283/1/6 284/1/6 287/1/6
f 287/1/6 284/1/6 288/1/6
f 289/1/6 290/1/6 293/1/6
f 293/1/6 290/1/6 294/1/6
f 291/1/6 292/1/6 295/1/6
f 295/1/6 292/1/6 296/1/6
f 297/1/6 298/1/6 301/1/6
f 301/1/6 298/1/6 302/1/6
f 299/1/6 300/1/6 303/1/6
f 303/1/6 300/1/6 304/1/6
f 305/1/6 306/1/6 307/1/6
f 307/1/6 306/1/6 308/1/6
f 309/2/6 310/2/6 311/2/6
f 311/2/6 310/2/6 312/2/6
f 313/1/6 314/1/6 315/1/6
f 315/1/6 314/1/6 316/1/6
f 317/1/6 318/1/6 319/1/6
f 319/1/6 318/1/6 320/1/6
