# MagicaVoxel @ Ephtracy

# group
o 

# material
mtllib guia.mtl
usemtl palette

# normals
vn -1 0 0
vn 1 0 0
vn 0 0 1
vn 0 0 -1
vn 0 -1 0
vn 0 1 0

# texcoords
vt 0.0136719 0.5
vt 0.0332031 0.5
vt 0.0371094 0.5
vt 0.369141 0.5
vt 0.486328 0.5
vt 0.958984 0.5
vt 0.990234 0.5

# verts
v -0.7 0.7 0.1
v -0.7 0.7 0
v -0.7 0.9 0.1
v -0.7 0.9 0
v -0.7 1.6 0.2
v -0.7 1.6 -0.1
v -0.7 1.7 0.2
v -0.7 1.7 -0.1
v -0.6 1.6 0.3
v -0.6 1.6 0.2
v -0.6 1.6 -0.1
v -0.6 1.6 -0.2
v -0.6 1.7 0.3
v -0.6 1.7 0.2
v -0.6 1.7 -0.1
v -0.6 1.7 -0.2
v -0.5 1 0
v -0.5 1 -0.1
v -0.5 1.1 0.2
v -0.5 1.1 0.1
v -0.5 1.1 0
v -0.5 1.3 0.2
v -0.5 1.3 0.1
v -0.5 1.6 0.4
v -0.5 1.6 0.3
v -0.5 1.6 0.2
v -0.5 1.6 -0.1
v -0.5 1.6 -0.2
v -0.5 1.6 -0.3
v -0.5 1.7 0.4
v -0.5 1.7 0.3
v -0.5 1.7 -0.2
v -0.5 1.7 -0.3
v -0.5 1.8 0.3
v -0.5 1.8 -0.2
v -0.5 1.9 0.3
v -0.5 1.9 0.2
v -0.5 1.9 -0.1
v -0.5 1.9 -0.2
v -0.5 2 0.2
v -0.5 2 -0.1
v -0.4 1 0.2
v -0.4 1 0
v -0.4 1.1 0.2
v -0.4 1.1 0.1
v -0.4 1.1 0
v -0.4 1.9 0.3
v -0.4 1.9 0.2
v -0.4 1.9 -0.1
v -0.4 1.9 -0.2
v -0.4 2 0.3
v -0.4 2 0.2
v -0.4 2 -0.1
v -0.4 2 -0.2
v -0.3 0.4 0.2
v -0.3 0.4 -0.1
v -0.3 0.5 0.2
v -0.3 0.5 -0.1
v -0.3 0.6 0.2
v -0.3 0.6 -0.1
v -0.3 0.7 0.1
v -0.3 0.7 0
v -0.3 0.9 0.2
v -0.3 0.9 0.1
v -0.3 0.9 0
v -0.3 0.9 -0.1
v -0.2 0 0.3
v -0.2 0 0
v -0.2 0.1 0.3
v -0.2 0.1 0.1
v -0.2 0.1 0
v -0.2 0.2 0.2
v -0.2 0.2 0.1
v -0.2 0.2 0
v -0.2 0.2 -0.1
v -0.2 0.3 0.2
v -0.2 0.3 -0.1
v -0.2 0.4 0.2
v -0.2 0.4 -0.1
v -0.1 0.9 0.1
v -0.1 0.9 0
v -0.1 1 0.1
v -0.1 1 0
v -0.1 1.7 0.4
v -0.1 1.7 0.3
v -0.1 1.8 0.3
v -0.1 1.9 0.4
v -0.1 1.9 0.3
v 0.1 0 0.3
v 0.1 0 0
v 0.1 0.1 0.3
v 0.1 0.1 0.1
v 0.1 0.1 0
v 0.1 0.2 0.2
v 0.1 0.2 0.1
v 0.1 0.2 0
v 0.1 0.2 -0.1
v 0.1 0.3 0.2
v 0.1 0.3 -0.1
v 0.1 0.4 0.2
v 0.1 0.4 -0.1
v 0 0 0.3
v 0 0 0
v 0 0.1 0.3
v 0 0.1 0.1
v 0 0.1 0
v 0 0.2 0.2
v 0 0.2 0.1
v 0 0.2 0
v 0 0.2 -0.1
v 0 0.3 0.2
v 0 0.3 -0.1
v 0 0.4 0.2
v 0 0.4 -0.1
v 0.2 0.9 0.1
v 0.2 0.9 0
v 0.2 1 0.1
v 0.2 1 0
v 0.2 1.7 0.4
v 0.2 1.7 0.3
v 0.2 1.8 0.3
v 0.2 1.9 0.4
v 0.2 1.9 0.3
v 0.3 0 0.3
v 0.3 0 0
v 0.3 0.1 0.3
v 0.3 0.1 0.1
v 0.3 0.1 0
v 0.3 0.2 0.2
v 0.3 0.2 0.1
v 0.3 0.2 0
v 0.3 0.2 -0.1
v 0.3 0.3 0.2
v 0.3 0.3 -0.1
v 0.3 0.4 0.2
v 0.3 0.4 -0.1
v 0.4 0.4 0.2
v 0.4 0.4 -0.1
v 0.4 0.5 0.2
v 0.4 0.5 -0.1
v 0.4 0.6 0.2
v 0.4 0.6 -0.1
v 0.4 0.7 0.1
v 0.4 0.7 0
v 0.4 0.9 0.2
v 0.4 0.9 0.1
v 0.4 0.9 0
v 0.4 0.9 -0.1
v 0.5 1 0.2
v 0.5 1 0
v 0.5 1.1 0.2
v 0.5 1.1 0.1
v 0.5 1.1 0
v 0.5 1.9 0.3
v 0.5 1.9 0.2
v 0.5 1.9 -0.1
v 0.5 1.9 -0.2
v 0.5 2 0.3
v 0.5 2 0.2
v 0.5 2 -0.1
v 0.5 2 -0.2
v 0.6 1 0
v 0.6 1 -0.1
v 0.6 1.1 0.2
v 0.6 1.1 0.1
v 0.6 1.1 0
v 0.6 1.3 0.2
v 0.6 1.3 0.1
v 0.6 1.6 0.4
v 0.6 1.6 0.3
v 0.6 1.6 0.2
v 0.6 1.6 -0.1
v 0.6 1.6 -0.2
v 0.6 1.6 -0.3
v 0.6 1.7 0.4
v 0.6 1.7 0.3
v 0.6 1.7 -0.2
v 0.6 1.7 -0.3
v 0.6 1.8 0.3
v 0.6 1.8 -0.2
v 0.6 1.9 0.3
v 0.6 1.9 0.2
v 0.6 1.9 -0.1
v 0.6 1.9 -0.2
v 0.6 2 0.2
v 0.6 2 -0.1
v 0.7 1.6 0.3
v 0.7 1.6 0.2
v 0.7 1.6 -0.1
v 0.7 1.6 -0.2
v 0.7 1.7 0.3
v 0.7 1.7 0.2
v 0.7 1.7 -0.1
v 0.7 1.7 -0.2
v 0.8 0.7 0.1
v 0.8 0.7 0
v 0.8 0.9 0.1
v 0.8 0.9 0
v 0.8 1.6 0.2
v 0.8 1.6 -0.1
v 0.8 1.7 0.2
v 0.8 1.7 -0.1
v -0.5 1.6 0.4
v -0.5 1.7 0.4
v -0.1 1.7 0.4
v -0.1 1.9 0.4
v 0.2 1.7 0.4
v 0.2 1.9 0.4
v 0.6 1.6 0.4
v 0.6 1.7 0.4
v -0.6 1.6 0.3
v -0.6 1.7 0.3
v -0.5 1.6 0.3
v -0.5 1.7 0.3
v -0.5 1.8 0.3
v -0.5 1.9 0.3
v -0.4 1.9 0.3
v -0.4 2 0.3
v -0.2 0 0.3
v -0.2 0.1 0.3
v -0.1 1.7 0.3
v -0.1 1.8 0.3
v -0.1 1.9 0.3
v 0 0 0.3
v 0 0.1 0.3
v 0.1 0 0.3
v 0.1 0.1 0.3
v 0.2 1.7 0.3
v 0.2 1.8 0.3
v 0.2 1.9 0.3
v 0.3 0 0.3
v 0.3 0.1 0.3
v 0.5 1.9 0.3
v 0.5 2 0.3
v 0.6 1.6 0.3
v 0.6 1.7 0.3
v 0.6 1.8 0.3
v 0.6 1.9 0.3
v 0.7 1.6 0.3
v 0.7 1.7 0.3
v -0.7 1.6 0.2
v -0.7 1.7 0.2
v -0.6 1.6 0.2
v -0.6 1.7 0.2
v -0.5 1.1 0.2
v -0.5 1.3 0.2
v -0.5 1.6 0.2
v -0.5 1.9 0.2
v -0.5 2 0.2
v -0.4 1 0.2
v -0.4 1.1 0.2
v -0.4 1.3 0.2
v -0.4 1.5 0.2
v -0.4 1.9 0.2
v -0.4 2 0.2
v -0.3 0.4 0.2
v -0.3 0.5 0.2
v -0.3 0.6 0.2
v -0.3 0.9 0.2
v -0.2 0.2 0.2
v -0.2 0.3 0.2
v -0.2 0.4 0.2
v -0.2 1.2 0.2
v -0.2 1.4 0.2
v 0 0.2 0.2
v 0 0.3 0.2
v 0 0.4 0.2
v 0 0.5 0.2
v 0 0.6 0.2
v 0 1.2 0.2
v 0 1.4 0.2
v 0.1 0.2 0.2
v 0.1 0.3 0.2
v 0.1 0.4 0.2
v 0.1 0.5 0.2
v 0.1 0.6 0.2
v 0.1 1.2 0.2
v 0.1 1.4 0.2
v 0.2 0.7 0.2
v 0.2 0.8 0.2
v 0.3 0.2 0.2
v 0.3 0.3 0.2
v 0.3 0.4 0.2
v 0.3 0.7 0.2
v 0.3 0.8 0.2
v 0.3 1.2 0.2
v 0.3 1.4 0.2
v 0.4 0.4 0.2
v 0.4 0.5 0.2
v 0.4 0.6 0.2
v 0.4 0.9 0.2
v 0.5 1 0.2
v 0.5 1.1 0.2
v 0.5 1.3 0.2
v 0.5 1.5 0.2
v 0.5 1.9 0.2
v 0.5 2 0.2
v 0.6 1.1 0.2
v 0.6 1.3 0.2
v 0.6 1.6 0.2
v 0.6 1.9 0.2
v 0.6 2 0.2
v 0.7 1.6 0.2
v 0.7 1.7 0.2
v 0.8 1.6 0.2
v 0.8 1.7 0.2
v -0.7 0.7 0.1
v -0.7 0.9 0.1
v -0.3 0.7 0.1
v -0.3 0.9 0.1
v -0.2 0.1 0.1
v -0.2 0.2 0.1
v -0.1 0.9 0.1
v -0.1 1 0.1
v 0 0.1 0.1
v 0 0.2 0.1
v 0.1 0.1 0.1
v 0.1 0.2 0.1
v 0.2 0.9 0.1
v 0.2 1 0.1
v 0.3 0.1 0.1
v 0.3 0.2 0.1
v 0.4 0.7 0.1
v 0.4 0.9 0.1
v 0.8 0.7 0.1
v 0.8 0.9 0.1
v -0.5 1 0
v -0.5 1.1 0
v -0.4 1 0
v -0.4 1.1 0
v 0.5 1 0
v 0.5 1.1 0
v 0.6 1 0
v 0.6 1.1 0
v -0.7 0.7 0
v -0.7 0.9 0
v -0.3 0.7 0
v -0.3 0.9 0
v -0.2 0 0
v -0.2 0.1 0
v -0.2 0.2 0
v -0.1 0.9 0
v -0.1 1 0
v 0 0 0
v 0 0.1 0
v 0 0.2 0
v 0.1 0 0
v 0.1 0.1 0
v 0.1 0.2 0
v 0.2 0.9 0
v 0.2 1 0
v 0.3 0 0
v 0.3 0.1 0
v 0.3 0.2 0
v 0.4 0.7 0
v 0.4 0.9 0
v 0.8 0.7 0
v 0.8 0.9 0
v -0.7 1.6 -0.1
v -0.7 1.7 -0.1
v -0.6 1.6 -0.1
v -0.6 1.7 -0.1
v -0.5 1 -0.1
v -0.5 1.6 -0.1
v -0.5 1.9 -0.1
v -0.5 2 -0.1
v -0.4 1.9 -0.1
v -0.4 2 -0.1
v -0.3 0.4 -0.1
v -0.3 0.5 -0.1
v -0.3 0.6 -0.1
v -0.3 0.9 -0.1
v -0.2 0.2 -0.1
v -0.2 0.3 -0.1
v -0.2 0.4 -0.1
v 0 0.2 -0.1
v 0 0.3 -0.1
v 0 0.4 -0.1
v 0.1 0.2 -0.1
v 0.1 0.3 -0.1
v 0.1 0.4 -0.1
v 0.3 0.2 -0.1
v 0.3 0.3 -0.1
v 0.3 0.4 -0.1
v 0.4 0.4 -0.1
v 0.4 0.5 -0.1
v 0.4 0.6 -0.1
v 0.4 0.9 -0.1
v 0.5 1.9 -0.1
v 0.5 2 -0.1
v 0.6 1 -0.1
v 0.6 1.6 -0.1
v 0.6 1.9 -0.1
v 0.6 2 -0.1
v 0.7 1.6 -0.1
v 0.7 1.7 -0.1
v 0.8 1.6 -0.1
v 0.8 1.7 -0.1
v -0.6 1.6 -0.2
v -0.6 1.7 -0.2
v -0.5 1.6 -0.2
v -0.5 1.7 -0.2
v -0.5 1.8 -0.2
v -0.5 1.9 -0.2
v -0.4 1.9 -0.2
v -0.4 2 -0.2
v 0.5 1.9 -0.2
v 0.5 2 -0.2
v 0.6 1.6 -0.2
v 0.6 1.7 -0.2
v 0.6 1.8 -0.2
v 0.6 1.9 -0.2
v 0.7 1.6 -0.2
v 0.7 1.7 -0.2
v -0.5 1.6 -0.3
v -0.5 1.7 -0.3
v 0.6 1.6 -0.3
v 0.6 1.7 -0.3
v -0.2 0 0.3
v 0 0 0.3
v 0.1 0 0.3
v 0.3 0 0.3
v -0.2 0 0
v 0 0 0
v 0.1 0 0
v 0.3 0 0
v -0.2 0.2 0.2
v 0 0.2 0.2
v 0.1 0.2 0.2
v 0.3 0.2 0.2
v -0.2 0.2 0.1
v 0 0.2 0.1
v 0.1 0.2 0.1
v 0.3 0.2 0.1
v -0.2 0.2 0
v 0 0.2 0
v 0.1 0.2 0
v 0.3 0.2 0
v -0.2 0.2 -0.1
v 0 0.2 -0.1
v 0.1 0.2 -0.1
v 0.3 0.2 -0.1
v -0.3 0.4 0.2
v -0.2 0.4 0.2
v 0 0.4 0.2
v 0.1 0.4 0.2
v 0.3 0.4 0.2
v 0.4 0.4 0.2
v -0.3 0.4 -0.1
v -0.2 0.4 -0.1
v 0 0.4 -0.1
v 0.1 0.4 -0.1
v 0.3 0.4 -0.1
v 0.4 0.4 -0.1
v -0.7 0.7 0.1
v -0.3 0.7 0.1
v 0.4 0.7 0.1
v 0.8 0.7 0.1
v -0.7 0.7 0
v -0.3 0.7 0
v 0.4 0.7 0
v 0.8 0.7 0
v -0.4 1 0.2
v 0.5 1 0.2
v -0.1 1 0.1
v 0.2 1 0.1
v -0.5 1 0
v -0.4 1 0
v -0.1 1 0
v 0.2 1 0
v 0.5 1 0
v 0.6 1 0
v -0.5 1 -0.1
v 0.6 1 -0.1
v -0.5 1.1 0.2
v -0.4 1.1 0.2
v 0.5 1.1 0.2
v 0.6 1.1 0.2
v -0.5 1.1 0.1
v -0.4 1.1 0.1
v 0.5 1.1 0.1
v 0.6 1.1 0.1
v -0.5 1.1 0
v -0.4 1.1 0
v 0.5 1.1 0
v 0.6 1.1 0
v -0.5 1.6 0.4
v 0.6 1.6 0.4
v -0.6 1.6 0.3
v -0.5 1.6 0.3
v 0.6 1.6 0.3
v 0.7 1.6 0.3
v -0.7 1.6 0.2
v -0.6 1.6 0.2
v -0.5 1.6 0.2
v 0.6 1.6 0.2
v 0.7 1.6 0.2
v 0.8 1.6 0.2
v -0.7 1.6 -0.1
v -0.6 1.6 -0.1
v -0.5 1.6 -0.1
v 0.6 1.6 -0.1
v 0.7 1.6 -0.1
v 0.8 1.6 -0.1
v -0.6 1.6 -0.2
v -0.5 1.6 -0.2
v 0.6 1.6 -0.2
v 0.7 1.6 -0.2
v -0.5 1.6 -0.3
v 0.6 1.6 -0.3
v -0.2 0.1 0.3
v 0 0.1 0.3
v 0.1 0.1 0.3
v 0.3 0.1 0.3
v -0.2 0.1 0.1
v 0 0.1 0.1
v 0.1 0.1 0.1
v 0.3 0.1 0.1
v -0.3 0.9 0.2
v 0.4 0.9 0.2
v -0.7 0.9 0.1
v -0.3 0.9 0.1
v -0.1 0.9 0.1
v 0.2 0.9 0.1
v 0.4 0.9 0.1
v 0.8 0.9 0.1
v -0.7 0.9 0
v -0.3 0.9 0
v -0.1 0.9 0
v 0.2 0.9 0
v 0.4 0.9 0
v 0.8 0.9 0
v -0.3 0.9 -0.1
v 0.4 0.9 -0.1
v -0.5 1.7 0.4
v -0.1 1.7 0.4
v 0.2 1.7 0.4
v 0.6 1.7 0.4
v -0.6 1.7 0.3
v -0.5 1.7 0.3
v -0.1 1.7 0.3
v 0.2 1.7 0.3
v 0.6 1.7 0.3
v 0.7 1.7 0.3
v -0.7 1.7 0.2
v -0.6 1.7 0.2
v 0.7 1.7 0.2
v 0.8 1.7 0.2
v -0.7 1.7 -0.1
v -0.6 1.7 -0.1
v 0.7 1.7 -0.1
v 0.8 1.7 -0.1
v -0.6 1.7 -0.2
v -0.5 1.7 -0.2
v 0.6 1.7 -0.2
v 0.7 1.7 -0.2
v -0.5 1.7 -0.3
v 0.6 1.7 -0.3
v -0.1 1.9 0.4
v 0.2 1.9 0.4
v -0.5 1.9 0.3
v -0.4 1.9 0.3
v -0.1 1.9 0.3
v 0.2 1.9 0.3
v 0.5 1.9 0.3
v 0.6 1.9 0.3
v -0.5 1.9 0.2
v -0.4 1.9 0.2
v 0.5 1.9 0.2
v 0.6 1.9 0.2
v -0.5 1.9 -0.1
v -0.4 1.9 -0.1
v 0.5 1.9 -0.1
v 0.6 1.9 -0.1
v -0.5 1.9 -0.2
v -0.4 1.9 -0.2
v 0.5 1.9 -0.2
v 0.6 1.9 -0.2
v -0.4 2 0.3
v 0.5 2 0.3
v -0.5 2 0.2
v -0.4 2 0.2
v -0.3 2 0.2
v 0.4 2 0.2
v 0.5 2 0.2
v 0.6 2 0.2
v -0.2 2 0.1
v 0.3 2 0.1
v -0.2 2 0
v 0.3 2 0
v -0.5 2 -0.1
v -0.4 2 -0.1
v -0.3 2 -0.1
v 0.4 2 -0.1
v 0.5 2 -0.1
v 0.6 2 -0.1
v -0.4 2 -0.2
v 0.5 2 -0.2

# faces
f 3/2/1 2/2/1 1/2/1
f 4/2/1 2/2/1 3/2/1
f 7/1/1 6/1/1 5/1/1
f 8/1/1 6/1/1 7/1/1
f 13/1/1 10/1/1 9/1/1
f 14/1/1 10/1/1 13/1/1
f 15/1/1 12/1/1 11/1/1
f 16/1/1 12/1/1 15/1/1
f 21/4/1 18/4/1 17/4/1
f 22/2/1 20/2/1 19/2/1
f 23/4/1 21/4/1 20/4/1
f 23/2/1 20/2/1 22/2/1
f 26/4/1 23/4/1 22/4/1
f 27/4/1 18/4/1 21/4/1
f 27/4/1 23/4/1 26/4/1
f 27/4/1 21/4/1 23/4/1
f 30/1/1 25/1/1 24/1/1
f 31/1/1 25/1/1 30/1/1
f 32/1/1 29/1/1 28/1/1
f 33/1/1 29/1/1 32/1/1
f 34/4/1 32/4/1 31/4/1
f 35/4/1 32/4/1 34/4/1
f 36/1/1 35/1/1 34/1/1
f 37/1/1 35/1/1 36/1/1
f 38/1/1 35/1/1 37/1/1
f 39/1/1 35/1/1 38/1/1
f 40/1/1 38/1/1 37/1/1
f 41/1/1 38/1/1 40/1/1
f 44/2/1 43/2/1 42/2/1
f 45/2/1 43/2/1 44/2/1
f 46/2/1 43/2/1 45/2/1
f 51/1/1 48/1/1 47/1/1
f 52/1/1 48/1/1 51/1/1
f 53/1/1 50/1/1 49/1/1
f 54/1/1 50/1/1 53/1/1
f 57/3/1 56/3/1 55/3/1
f 58/3/1 56/3/1 57/3/1
f 59/4/1 58/4/1 57/4/1
f 60/4/1 58/4/1 59/4/1
f 61/1/1 60/1/1 59/1/1
f 62/1/1 60/1/1 61/1/1
f 63/1/1 61/1/1 59/1/1
f 64/1/1 61/1/1 63/1/1
f 65/1/1 60/1/1 62/1/1
f 66/1/1 60/1/1 65/1/1
f 69/7/1 68/7/1 67/7/1
f 70/7/1 68/7/1 69/7/1
f 71/7/1 68/7/1 70/7/1
f 73/2/1 71/2/1 70/2/1
f 74/2/1 71/2/1 73/2/1
f 76/1/1 74/1/1 73/1/1
f 76/1/1 75/1/1 74/1/1
f 76/1/1 73/1/1 72/1/1
f 77/1/1 75/1/1 76/1/1
f 78/3/1 77/3/1 76/3/1
f 79/3/1 77/3/1 78/3/1
f 82/2/1 81/2/1 80/2/1
f 83/2/1 81/2/1 82/2/1
f 86/5/1 85/5/1 84/5/1
f 87/5/1 86/5/1 84/5/1
f 88/5/1 86/5/1 87/5/1
f 91/7/1 90/7/1 89/7/1
f 92/7/1 90/7/1 91/7/1
f 93/7/1 90/7/1 92/7/1
f 95/2/1 93/2/1 92/2/1
f 96/2/1 93/2/1 95/2/1
f 98/1/1 96/1/1 95/1/1
f 98/1/1 97/1/1 96/1/1
f 98/1/1 95/1/1 94/1/1
f 99/1/1 97/1/1 98/1/1
f 100/3/1 99/3/1 98/3/1
f 101/3/1 99/3/1 100/3/1
f 102/7/2 103/7/2 104/7/2
f 104/7/2 103/7/2 105/7/2
f 105/7/2 103/7/2 106/7/2
f 105/2/2 106/2/2 108/2/2
f 108/2/2 106/2/2 109/2/2
f 108/1/2 109/1/2 111/1/2
f 109/1/2 110/1/2 111/1/2
f 107/1/2 108/1/2 111/1/2
f 111/1/2 110/1/2 112/1/2
f 111/3/2 112/3/2 113/3/2
f 113/3/2 112/3/2 114/3/2
f 115/2/2 116/2/2 117/2/2
f 117/2/2 116/2/2 118/2/2
f 119/5/2 120/5/2 121/5/2
f 119/5/2 121/5/2 122/5/2
f 122/5/2 121/5/2 123/5/2
f 124/7/2 125/7/2 126/7/2
f 126/7/2 125/7/2 127/7/2
f 127/7/2 125/7/2 128/7/2
f 127/2/2 128/2/2 130/2/2
f 130/2/2 128/2/2 131/2/2
f 130/1/2 131/1/2 133/1/2
f 131/1/2 132/1/2 133/1/2
f 129/1/2 130/1/2 133/1/2
f 133/1/2 132/1/2 134/1/2
f 133/3/2 134/3/2 135/3/2
f 135/3/2 134/3/2 136/3/2
f 137/3/2 138/3/2 139/3/2
f 139/3/2 138/3/2 140/3/2
f 139/4/2 140/4/2 141/4/2
f 141/4/2 140/4/2 142/4/2
f 141/1/2 142/1/2 143/1/2
f 143/1/2 142/1/2 144/1/2
f 141/1/2 143/1/2 145/1/2
f 145/1/2 143/1/2 146/1/2
f 144/1/2 142/1/2 147/1/2
f 147/1/2 142/1/2 148/1/2
f 149/2/2 150/2/2 151/2/2
f 151/2/2 150/2/2 152/2/2
f 152/2/2 150/2/2 153/2/2
f 154/1/2 155/1/2 158/1/2
f 158/1/2 155/1/2 159/1/2
f 156/1/2 157/1/2 160/1/2
f 160/1/2 157/1/2 161/1/2
f 162/4/2 163/4/2 166/4/2
f 164/2/2 165/2/2 167/2/2
f 165/4/2 166/4/2 168/4/2
f 167/2/2 165/2/2 168/2/2
f 167/4/2 168/4/2 171/4/2
f 166/4/2 163/4/2 172/4/2
f 171/4/2 168/4/2 172/4/2
f 168/4/2 166/4/2 172/4/2
f 169/1/2 170/1/2 175/1/2
f 175/1/2 170/1/2 176/1/2
f 173/1/2 174/1/2 177/1/2
f 177/1/2 174/1/2 178/1/2
f 176/4/2 177/4/2 179/4/2
f 179/4/2 177/4/2 180/4/2
f 179/1/2 180/1/2 181/1/2
f 181/1/2 180/1/2 182/1/2
f 182/1/2 180/1/2 183/1/2
f 183/1/2 180/1/2 184/1/2
f 182/1/2 183/1/2 185/1/2
f 185/1/2 183/1/2 186/1/2
f 187/1/2 188/1/2 191/1/2
f 191/1/2 188/1/2 192/1/2
f 189/1/2 190/1/2 193/1/2
f 193/1/2 190/1/2 194/1/2
f 195/2/2 196/2/2 197/2/2
f 197/2/2 196/2/2 198/2/2
f 199/1/2 200/1/2 201/1/2
f 201/1/2 200/1/2 202/1/2
f 205/1/3 204/1/3 203/1/3
f 207/1/3 205/1/3 203/1/3
f 207/5/3 206/5/3 205/5/3
f 208/5/3 206/5/3 207/5/3
f 209/1/3 207/1/3 203/1/3
f 210/1/3 207/1/3 209/1/3
f 213/1/3 212/1/3 211/1/3
f 214/1/3 212/1/3 213/1/3
f 217/1/3 216/1/3 215/1/3
f 221/4/3 215/4/3 214/4/3
f 222/1/3 217/1/3 215/1/3
f 222/4/3 215/4/3 221/4/3
f 222/1/3 218/1/3 217/1/3
f 223/1/3 218/1/3 222/1/3
f 224/7/3 220/7/3 219/7/3
f 225/7/3 220/7/3 224/7/3
f 230/1/3 218/1/3 223/1/3
f 231/7/3 227/7/3 226/7/3
f 232/7/3 227/7/3 231/7/3
f 233/1/3 230/1/3 229/1/3
f 233/1/3 218/1/3 230/1/3
f 234/1/3 218/1/3 233/1/3
f 236/4/3 229/4/3 228/4/3
f 237/1/3 233/1/3 229/1/3
f 237/4/3 229/4/3 236/4/3
f 238/1/3 233/1/3 237/1/3
f 239/1/3 236/1/3 235/1/3
f 240/1/3 236/1/3 239/1/3
f 243/1/3 242/1/3 241/1/3
f 244/1/3 242/1/3 243/1/3
f 251/2/3 246/2/3 245/2/3
f 252/4/3 247/4/3 246/4/3
f 252/2/3 246/2/3 251/2/3
f 253/4/3 247/4/3 252/4/3
f 254/1/3 249/1/3 248/1/3
f 255/1/3 249/1/3 254/1/3
f 262/3/3 257/3/3 256/3/3
f 263/2/3 251/2/3 250/2/3
f 263/2/3 252/2/3 251/2/3
f 263/2/3 253/2/3 252/2/3
f 264/2/3 253/2/3 263/2/3
f 265/1/3 261/1/3 260/1/3
f 266/3/3 262/3/3 261/3/3
f 266/1/3 261/1/3 265/1/3
f 267/3/3 257/3/3 262/3/3
f 267/3/3 262/3/3 266/3/3
f 268/4/3 258/4/3 257/4/3
f 268/3/3 257/3/3 267/3/3
f 269/1/3 259/1/3 258/1/3
f 269/4/3 258/4/3 268/4/3
f 270/2/3 263/2/3 250/2/3
f 270/7/3 264/7/3 263/7/3
f 271/2/3 253/2/3 264/2/3
f 271/7/3 264/7/3 270/7/3
f 274/3/3 268/3/3 267/3/3
f 275/6/3 269/6/3 268/6/3
f 275/3/3 268/3/3 274/3/3
f 276/1/3 259/1/3 269/1/3
f 276/6/3 269/6/3 275/6/3
f 277/2/3 270/2/3 250/2/3
f 277/2/3 271/2/3 270/2/3
f 278/2/3 253/2/3 271/2/3
f 278/2/3 271/2/3 277/2/3
f 279/1/3 259/1/3 276/1/3
f 280/1/3 259/1/3 279/1/3
f 281/1/3 273/1/3 272/1/3
f 282/3/3 275/3/3 274/3/3
f 282/1/3 273/1/3 281/1/3
f 282/3/3 274/3/3 273/3/3
f 283/3/3 275/3/3 282/3/3
f 284/5/3 280/5/3 279/5/3
f 284/1/3 279/1/3 276/1/3
f 285/1/3 259/1/3 280/1/3
f 285/5/3 280/5/3 284/5/3
f 286/2/3 277/2/3 250/2/3
f 286/7/3 278/7/3 277/7/3
f 287/2/3 253/2/3 278/2/3
f 287/7/3 278/7/3 286/7/3
f 288/3/3 275/3/3 283/3/3
f 289/4/3 276/4/3 275/4/3
f 289/3/3 275/3/3 288/3/3
f 290/1/3 284/1/3 276/1/3
f 290/4/3 276/4/3 289/4/3
f 290/1/3 285/1/3 284/1/3
f 291/1/3 259/1/3 285/1/3
f 291/1/3 285/1/3 290/1/3
f 292/2/3 287/2/3 286/2/3
f 292/2/3 286/2/3 250/2/3
f 293/2/3 287/2/3 292/2/3
f 294/2/3 287/2/3 293/2/3
f 295/4/3 247/4/3 253/4/3
f 295/2/3 287/2/3 294/2/3
f 295/2/3 253/2/3 287/2/3
f 298/2/3 294/2/3 293/2/3
f 299/4/3 295/4/3 294/4/3
f 299/2/3 294/2/3 298/2/3
f 300/4/3 247/4/3 295/4/3
f 300/4/3 295/4/3 299/4/3
f 301/1/3 297/1/3 296/1/3
f 302/1/3 297/1/3 301/1/3
f 305/1/3 304/1/3 303/1/3
f 306/1/3 304/1/3 305/1/3
f 309/2/3 308/2/3 307/2/3
f 310/2/3 308/2/3 309/2/3
f 315/2/3 312/2/3 311/2/3
f 316/2/3 312/2/3 315/2/3
f 319/2/3 314/2/3 313/2/3
f 320/2/3 314/2/3 319/2/3
f 321/2/3 318/2/3 317/2/3
f 322/2/3 318/2/3 321/2/3
f 325/2/3 324/2/3 323/2/3
f 326/2/3 324/2/3 325/2/3
f 329/4/3 328/4/3 327/4/3
f 330/4/3 328/4/3 329/4/3
f 333/4/3 332/4/3 331/4/3
f 334/4/3 332/4/3 333/4/3
f 335/2/4 336/2/4 337/2/4
f 337/2/4 336/2/4 338/2/4
f 339/7/4 340/7/4 344/7/4
f 340/2/4 341/2/4 345/2/4
f 344/7/4 340/7/4 345/7/4
f 345/2/4 341/2/4 346/2/4
f 342/2/4 343/2/4 350/2/4
f 350/2/4 343/2/4 351/2/4
f 347/7/4 348/7/4 352/7/4
f 348/2/4 349/2/4 353/2/4
f 352/7/4 348/7/4 353/7/4
f 353/2/4 349/2/4 354/2/4
f 355/2/4 356/2/4 357/2/4
f 357/2/4 356/2/4 358/2/4
f 359/1/4 360/1/4 361/1/4
f 361/1/4 360/1/4 362/1/4
f 365/1/4 366/1/4 367/1/4
f 367/1/4 366/1/4 368/1/4
f 369/3/4 370/3/4 375/3/4
f 373/1/4 374/1/4 376/1/4
f 374/3/4 375/3/4 377/3/4
f 376/1/4 374/1/4 377/1/4
f 375/3/4 370/3/4 378/3/4
f 377/3/4 375/3/4 378/3/4
f 378/3/4 370/3/4 381/3/4
f 379/1/4 380/1/4 382/1/4
f 380/3/4 381/3/4 383/3/4
f 382/1/4 380/1/4 383/1/4
f 381/3/4 370/3/4 384/3/4
f 383/3/4 381/3/4 384/3/4
f 384/3/4 370/3/4 385/3/4
f 370/4/4 371/4/4 386/4/4
f 385/3/4 370/3/4 386/3/4
f 371/1/4 372/1/4 387/1/4
f 386/4/4 371/4/4 387/4/4
f 387/1/4 372/1/4 388/1/4
f 363/4/4 364/4/4 391/4/4
f 391/4/4 364/4/4 392/4/4
f 389/1/4 390/1/4 393/1/4
f 393/1/4 390/1/4 394/1/4
f 395/1/4 396/1/4 397/1/4
f 397/1/4 396/1/4 398/1/4
f 399/1/4 400/1/4 401/1/4
f 401/1/4 400/1/4 402/1/4
f 403/1/4 404/1/4 405/1/4
f 403/1/4 405/1/4 407/1/4
f 405/1/4 406/1/4 407/1/4
f 407/1/4 406/1/4 408/1/4
f 402/4/4 403/4/4 410/4/4
f 403/1/4 407/1/4 411/1/4
f 410/4/4 403/4/4 411/4/4
f 411/1/4 407/1/4 412/1/4
f 409/1/4 410/1/4 413/1/4
f 413/1/4 410/1/4 414/1/4
f 415/1/4 416/1/4 417/1/4
f 417/1/4 416/1/4 418/1/4
f 423/7/5 420/7/5 419/7/5
f 424/7/5 420/7/5 423/7/5
f 425/7/5 422/7/5 421/7/5
f 426/7/5 422/7/5 425/7/5
f 431/1/5 428/1/5 427/1/5
f 432/1/5 428/1/5 431/1/5
f 433/1/5 430/1/5 429/1/5
f 434/1/5 430/1/5 433/1/5
f 439/1/5 436/1/5 435/1/5
f 440/1/5 436/1/5 439/1/5
f 441/1/5 438/1/5 437/1/5
f 442/1/5 438/1/5 441/1/5
f 449/3/5 444/3/5 443/3/5
f 450/3/5 444/3/5 449/3/5
f 451/3/5 446/3/5 445/3/5
f 452/3/5 446/3/5 451/3/5
f 453/3/5 448/3/5 447/3/5
f 454/3/5 448/3/5 453/3/5
f 459/2/5 456/2/5 455/2/5
f 460/2/5 456/2/5 459/2/5
f 461/2/5 458/2/5 457/2/5
f 462/2/5 458/2/5 461/2/5
f 465/2/5 464/2/5 463/2/5
f 466/2/5 464/2/5 465/2/5
f 468/2/5 465/2/5 463/2/5
f 469/2/5 465/2/5 468/2/5
f 470/2/5 464/2/5 466/2/5
f 471/2/5 464/2/5 470/2/5
f 473/4/5 469/4/5 468/4/5
f 473/4/5 472/4/5 471/4/5
f 473/4/5 471/4/5 470/4/5
f 473/4/5 470/4/5 469/4/5
f 473/4/5 468/4/5 467/4/5
f 474/4/5 472/4/5 473/4/5
f 479/2/5 476/2/5 475/2/5
f 480/2/5 476/2/5 479/2/5
f 481/2/5 478/2/5 477/2/5
f 482/2/5 478/2/5 481/2/5
f 483/4/5 480/4/5 479/4/5
f 484/4/5 480/4/5 483/4/5
f 485/4/5 482/4/5 481/4/5
f 486/4/5 482/4/5 485/4/5
f 490/1/5 488/1/5 487/1/5
f 491/1/5 488/1/5 490/1/5
f 494/1/5 490/1/5 489/1/5
f 494/1/5 492/1/5 491/1/5
f 494/1/5 491/1/5 490/1/5
f 495/1/5 492/1/5 494/1/5
f 496/1/5 492/1/5 495/1/5
f 497/1/5 492/1/5 496/1/5
f 499/1/5 494/1/5 493/1/5
f 499/1/5 495/1/5 494/1/5
f 500/1/5 495/1/5 499/1/5
f 501/1/5 495/1/5 500/1/5
f 502/1/5 498/1/5 497/1/5
f 502/1/5 497/1/5 496/1/5
f 503/1/5 498/1/5 502/1/5
f 504/1/5 498/1/5 503/1/5
f 505/1/5 501/1/5 500/1/5
f 505/1/5 503/1/5 502/1/5
f 505/1/5 502/1/5 501/1/5
f 506/1/5 503/1/5 505/1/5
f 507/1/5 503/1/5 506/1/5
f 508/1/5 503/1/5 507/1/5
f 509/1/5 507/1/5 506/1/5
f 510/1/5 507/1/5 509/1/5
f 511/7/6 512/7/6 515/7/6
f 515/7/6 512/7/6 516/7/6
f 513/7/6 514/7/6 517/7/6
f 517/7/6 514/7/6 518/7/6
f 519/1/6 520/1/6 522/1/6
f 522/1/6 520/1/6 523/1/6
f 523/1/6 520/1/6 524/1/6
f 524/1/6 520/1/6 525/1/6
f 521/2/6 522/2/6 527/2/6
f 522/1/6 523/1/6 528/1/6
f 527/2/6 522/2/6 528/2/6
f 528/1/6 523/1/6 529/1/6
f 524/1/6 525/1/6 530/1/6
f 525/2/6 526/2/6 531/2/6
f 530/1/6 525/1/6 531/1/6
f 531/2/6 526/2/6 532/2/6
f 529/1/6 530/1/6 533/1/6
f 528/1/6 529/1/6 533/1/6
f 530/1/6 531/1/6 533/1/6
f 533/1/6 531/1/6 534/1/6
f 535/1/6 536/1/6 540/1/6
f 540/1/6 536/1/6 541/1/6
f 537/1/6 538/1/6 542/1/6
f 542/1/6 538/1/6 543/1/6
f 539/1/6 540/1/6 546/1/6
f 543/1/6 544/1/6 547/1/6
f 545/1/6 546/1/6 549/1/6
f 546/1/6 540/1/6 550/1/6
f 549/1/6 546/1/6 550/1/6
f 547/1/6 548/1/6 551/1/6
f 543/1/6 547/1/6 551/1/6
f 551/1/6 548/1/6 552/1/6
f 550/1/6 540/1/6 553/1/6
f 553/1/6 540/1/6 554/1/6
f 543/1/6 551/1/6 555/1/6
f 555/1/6 551/1/6 556/1/6
f 554/1/6 555/1/6 557/1/6
f 557/1/6 555/1/6 558/1/6
f 559/5/6 560/5/6 563/5/6
f 563/5/6 560/5/6 564/5/6
f 561/1/6 562/1/6 567/1/6
f 567/1/6 562/1/6 568/1/6
f 565/1/6 566/1/6 569/1/6
f 569/1/6 566/1/6 570/1/6
f 571/1/6 572/1/6 575/1/6
f 575/1/6 572/1/6 576/1/6
f 573/1/6 574/1/6 577/1/6
f 577/1/6 574/1/6 578/1/6
f 579/1/6 580/1/6 582/1/6
f 582/1/6 580/1/6 583/1/6
f 583/1/6 580/1/6 584/1/6
f 584/1/6 580/1/6 585/1/6
f 583/4/6 584/4/6 587/4/6
f 587/4/6 584/4/6 588/4/6
f 583/4/6 587/4/6 589/4/6
f 587/1/6 588/1/6 589/1/6
f 588/4/6 584/4/6 590/4/6
f 589/1/6 588/1/6 590/1/6
f 581/1/6 582/1/6 591/1/6
f 582/1/6 583/1/6 591/1/6
f 591/1/6 583/1/6 592/1/6
f 589/4/6 590/4/6 593/4/6
f 592/1/6 583/1/6 593/1/6
f 583/4/6 589/4/6 593/4/6
f 590/4/6 584/4/6 594/4/6
f 593/4/6 590/4/6 594/4/6
f 585/1/6 586/1/6 594/1/6
f 584/1/6 585/1/6 594/1/6
f 594/1/6 586/1/6 595/1/6
f 595/1/6 586/1/6 596/1/6
f 592/1/6 593/1/6 597/1/6
f 594/1/6 595/1/6 597/1/6
f 593/1/6 594/1/6 597/1/6
f 597/1/6 595/1/6 598/1/6
